# xmcd
#
# Track frame offsets: 
#        150
#        2842
#        9726
#        22524
#        37439
#        50975
#        73147
#        102029
#        115933
#        138764
#        145343
#        161573
#        175177
#
# Disc length: 2552 seconds
#
# Revision: 3
# Processed by: cddbd v1.5.2PL0 Copyright (c) Steve Scherf et al.
# Submitted via: ExactAudioCopyFreeDBPlugin 1.0
#
DISCID=b009f60d
DTITLE=Sam Cooke - 1964 - Sam Cooke At The Copa
DYEAR=1964
DGENRE=Soul
TTITLE0=Opening Introduction
TTITLE1=The Best Things In Life Are Free
TTITLE2=Bill Bailey
TTITLE3=Nobody Knows You When You're Down And Out
TTITLE4=Frankie And Johnny
TTITLE5=Medley: Try A Little Tenderness - (I Love You) For Sentimental
TTITLE5=Reasons - You Send Me
TTITLE6=If I Had A Hammer (The Hammer Song)
TTITLE7=When I Fall In Love
TTITLE8=Twistin' The Night Away
TTITLE9=Band Introductions
TTITLE10=This Little Light Of Mine
TTITLE11=Blowin' In The Wind
TTITLE12=Tennessee Waltz
EXTD=Rimasterizzato Sacd 2003 YEAR: 1964
EXTT0=
EXTT1=
EXTT2=
EXTT3=
EXTT4=
EXTT5=
EXTT6=
EXTT7=
EXTT8=
EXTT9=
EXTT10=
EXTT11=
EXTT12=
PLAYORDER=
